<?xml version="1.0" encoding="UTF-8" standalone="no"?>
<svg
   xmlns:dc="http://purl.org/dc/elements/1.1/"
   xmlns:cc="http://creativecommons.org/ns#"
   xmlns:rdf="http://www.w3.org/1999/02/22-rdf-syntax-ns#"
   xmlns:svg="http://www.w3.org/2000/svg"
   xmlns="http://www.w3.org/2000/svg"
   xmlns:sodipodi="http://sodipodi.sourceforge.net/DTD/sodipodi-0.dtd"
   xmlns:inkscape="http://www.inkscape.org/namespaces/inkscape"
   viewBox="0 -256 1792 1792"
   id="svg3001"
   version="1.1"
   inkscape:version="0.48.3.1 r9886"
   width="100%"
   height="100%"
   sodipodi:docname="info_sign_font_awesome.svg">
  <metadata
     id="metadata3011">
    <rdf:RDF>
      <cc:Work
         rdf:about="">
        <dc:format>image/svg+xml</dc:format>
        <dc:type
           rdf:resource="http://purl.org/dc/dcmitype/StillImage" />
      </cc:Work>
    </rdf:RDF>
  </metadata>
  <defs
     id="defs3009" />
  <sodipodi:namedview
     pagecolor="#ffffff"
     bordercolor="#666666"
     borderopacity="1"
     objecttolerance="10"
     gridtolerance="10"
     guidetolerance="10"
     inkscape:pageopacity="0"
     inkscape:pageshadow="2"
     inkscape:window-width="640"
     inkscape:window-height="480"
     id="namedview3007"
     showgrid="false"
     inkscape:zoom="0.13169643"
     inkscape:cx="896"
     inkscape:cy="896"
     inkscape:window-x="0"
     inkscape:window-y="25"
     inkscape:window-maximized="0"
     inkscape:current-layer="svg3001" />
  <g
     transform="matrix(1,0,0,-1,113.89831,1285.4237)"
     id="g3003">
    <path
       d="m 1024,160 v 64 q 0,14 -9,23 -9,9 -23,9 h -96 v 480 q 0,14 -9,23 -9,9 -23,9 H 544 q -14,0 -23,-9 -9,-9 -9,-23 v -64 q 0,-14 9,-23 9,-9 23,-9 h 96 V 256 h -96 q -14,0 -23,-9 -9,-9 -9,-23 v -64 q 0,-14 9,-23 9,-9 23,-9 h 448 q 14,0 23,9 9,9 9,23 z M 896,928 v 192 q 0,14 -9,23 -9,9 -23,9 H 672 q -14,0 -23,-9 -9,-9 -9,-23 V 928 q 0,-14 9,-23 9,-9 23,-9 h 192 q 14,0 23,9 9,9 9,23 z M 1536,640 Q 1536,431 1433,254.5 1330,78 1153.5,-25 977,-128 768,-128 559,-128 382.5,-25 206,78 103,254.5 0,431 0,640 0,849 103,1025.5 206,1202 382.5,1305 559,1408 768,1408 977,1408 1153.5,1305 1330,1202 1433,1025.5 1536,849 1536,640 z"
       id="path3005"
       inkscape:connector-curvature="0"
       style="fill:currentColor" />
  </g>
</svg>
